<svg xmlns="http://www.w3.org/2000/svg" version="1.1" xmlns:xlink="http://www.w3.org/1999/xlink" xmlns:svgjs="http://svgjs.dev/svgjs" width="1440" height="560" preserveAspectRatio="none" viewBox="0 0 1440 560"><g mask="url(&quot;#SvgjsMask1017&quot;)" fill="none"><rect width="1440" height="560" x="0" y="0" fill="rgba(252, 128, 214, 1)"></rect><path d="M105.178,239.605C150.506,237.364,185.614,204.008,207.401,164.197C228.194,126.203,234.887,80.298,212.727,43.085C191.005,6.607,147.614,-8.765,105.178,-7.466C65.124,-6.24,30.633,15.958,8.46,49.338C-16.903,87.521,-36.965,134.389,-16.193,175.252C6.047,219.004,56.158,242.029,105.178,239.605" fill="rgba(224, 50, 186, 1)" class="triangle-float1"></path><path d="M35.038,100.602C57.536,100.724,76.921,85.153,87.013,65.046C96.154,46.833,90.655,26.428,81.374,8.286C70.883,-12.221,58.072,-36.722,35.038,-36.55C12.133,-36.379,0.205,-11.481,-10.118,8.967C-19.107,26.772,-24.79,46.597,-15.973,64.489C-6.103,84.518,12.709,100.481,35.038,100.602" fill="rgba(224, 50, 186, 1)" class="triangle-float3"></path><path d="M114.322,255.05C164.156,256.791,211.676,228.018,234.17,183.516C254.905,142.494,237.697,96.168,214.767,56.331C191.767,16.372,160.418,-23.723,114.322,-24.697C67.002,-25.697,28.411,10.105,6.246,51.925C-14.451,90.976,-12.605,136.6,8.155,175.618C30.406,217.438,66.98,253.396,114.322,255.05" fill="rgba(224, 50, 186, 1)" class="triangle-float2"></path><path d="M1392.023,159.704C1423.413,158.7,1443.316,129.901,1458.872,102.618C1474.226,75.69,1487.207,44.797,1473.349,17.069C1458.249,-13.144,1425.792,-31.819,1392.023,-31.138C1359.304,-30.478,1331.74,-8.555,1316.188,20.239C1301.432,47.56,1302.501,79.865,1317.334,107.144C1332.921,135.809,1359.411,160.747,1392.023,159.704" fill="rgba(224, 50, 186, 1)" class="triangle-float2"></path><path d="M1463.463,272.017C1516.15,272.382,1569.679,257.5,1598.899,213.657C1631.409,164.878,1640.739,100.801,1611.397,50.053C1582.081,-0.65,1521.957,-23.528,1463.463,-20.587C1409.889,-17.893,1365.758,17.113,1339.23,63.737C1313.032,109.781,1304.103,166.305,1331.24,211.801C1357.83,256.38,1411.557,271.657,1463.463,272.017" fill="rgba(224, 50, 186, 1)" class="triangle-float3"></path><path d="M1361.585,100.983C1385.575,101.044,1407.89,88.017,1419.518,67.033C1430.812,46.651,1427.829,22.243,1416.502,1.879C1404.805,-19.15,1385.63,-38.044,1361.585,-37.115C1338.578,-36.226,1324.698,-14.293,1313.557,5.856C1302.907,25.117,1294.241,47.093,1304.16,66.74C1314.926,88.063,1337.698,100.922,1361.585,100.983" fill="rgba(224, 50, 186, 1)" class="triangle-float1"></path><path d="M31.881,542.805C55.374,543.097,78.932,534.172,91.01,514.019C103.397,493.351,101.91,467.27,89.544,446.589C77.501,426.448,55.348,415.128,31.881,415.13C8.416,415.132,-13.978,426.309,-25.769,446.597C-37.615,466.981,-36.872,492.356,-24.754,512.579C-12.965,532.252,8.948,542.52,31.881,542.805" fill="rgba(224, 50, 186, 1)" class="triangle-float1"></path><path d="M130.013,724.412C178.256,720.813,210.432,680.304,234.589,638.39C258.703,596.551,279.276,547.57,256.469,505.004C232.721,460.683,180.285,444.208,130.013,443.22C77.598,442.19,22.791,455.63,-5.356,499.858C-35.365,547.013,-34.451,608.437,-5.594,656.306C22.396,702.737,75.948,728.445,130.013,724.412" fill="rgba(224, 50, 186, 1)" class="triangle-float2"></path><path d="M55.879,576.927C82.412,577.186,107.892,564.548,121.206,541.596C134.564,518.568,132.683,490.276,119.586,467.098C106.26,443.514,82.966,425.64,55.879,425.983C29.288,426.32,7.763,445.398,-5.093,468.677C-17.476,491.1,-19.843,518.022,-7.272,540.34C5.525,563.059,29.805,576.672,55.879,576.927" fill="rgba(224, 50, 186, 1)" class="triangle-float3"></path><path d="M1419.499,649.019C1461.741,648.726,1506.952,638.769,1528.066,602.181C1549.174,565.603,1537.937,519.761,1514.279,484.778C1493.438,453.961,1456.667,440.025,1419.499,441.645C1385.226,443.139,1357.433,464.172,1338.023,492.459C1314.747,526.379,1289.303,567.211,1308.294,603.703C1328.099,641.76,1376.598,649.316,1419.499,649.019" fill="rgba(224, 50, 186, 1)" class="triangle-float3"></path><path d="M1417.921,658.386C1459.902,657.149,1496.558,631.813,1517.008,595.129C1536.905,559.436,1538.787,515.285,1516.946,480.748C1496.383,448.232,1456.344,436.508,1417.921,438.441C1383.027,440.196,1354.294,460.939,1334.768,489.912C1311.907,523.834,1290.073,564.599,1308.178,601.28C1327.74,640.913,1373.742,659.687,1417.921,658.386" fill="rgba(224, 50, 186, 1)" class="triangle-float1"></path><path d="M1429.433,649.114C1467.638,647.174,1505.411,637.29,1527.456,606.027C1553.545,569.029,1569.256,520.949,1547.987,480.986C1525.749,439.203,1476.754,420.84,1429.433,421.851C1383.944,422.823,1342.734,446.847,1319.343,485.873C1295.237,526.093,1286.283,578.068,1312.501,616.944C1336.727,652.866,1386.161,651.312,1429.433,649.114" fill="rgba(224, 50, 186, 1)" class="triangle-float1"></path></g><defs><mask id="SvgjsMask1017"><rect width="1440" height="560" fill="#ffffff"></rect></mask><style>
                @keyframes float1 {
                    0%{transform: translate(0, 0)}
                    50%{transform: translate(-10px, 0)}
                    100%{transform: translate(0, 0)}
                }

                .triangle-float1 {
                    animation: float1 5s infinite;
                }

                @keyframes float2 {
                    0%{transform: translate(0, 0)}
                    50%{transform: translate(-5px, -5px)}
                    100%{transform: translate(0, 0)}
                }

                .triangle-float2 {
                    animation: float2 4s infinite;
                }

                @keyframes float3 {
                    0%{transform: translate(0, 0)}
                    50%{transform: translate(0, -10px)}
                    100%{transform: translate(0, 0)}
                }

                .triangle-float3 {
                    animation: float3 6s infinite;
                }
            </style></defs></svg>